<svg width="169" height="36" viewBox="0 0 169 36" fill="none" xmlns="http://www.w3.org/2000/svg">
<g filter="url(#filter0_d_1_84)">
<g opacity="0.6" filter="url(#filter1_d_1_84)">
<path d="M4.62 0.503998H22.476V5.544H16.032V27H10.812V5.544H4.62V0.503998ZM42.9797 13.788C42.9797 11.964 43.3277 10.236 44.0237 8.604C44.7197 6.972 45.6797 5.532 46.9037 4.284C48.1517 3.012 49.5917 2.016 51.2237 1.296C52.8557 0.575999 54.6077 0.215999 56.4797 0.215999C58.3277 0.215999 60.0677 0.575999 61.6997 1.296C63.3317 2.016 64.7717 3.012 66.0197 4.284C67.2917 5.532 68.2757 6.972 68.9717 8.604C69.6917 10.236 70.0517 11.964 70.0517 13.788C70.0517 15.66 69.6917 17.412 68.9717 19.044C68.2757 20.676 67.2917 22.116 66.0197 23.364C64.7717 24.588 63.3317 25.548 61.6997 26.244C60.0677 26.94 58.3277 27.288 56.4797 27.288C54.6077 27.288 52.8557 26.94 51.2237 26.244C49.5917 25.548 48.1517 24.588 46.9037 23.364C45.6797 22.116 44.7197 20.676 44.0237 19.044C43.3277 17.412 42.9797 15.66 42.9797 13.788ZM48.3797 13.788C48.3797 14.964 48.5837 16.068 48.9917 17.1C49.4237 18.108 50.0117 19.008 50.7557 19.8C51.5237 20.568 52.3997 21.168 53.3837 21.6C54.3917 22.032 55.4837 22.248 56.6597 22.248C57.7877 22.248 58.8317 22.032 59.7917 21.6C60.7757 21.168 61.6277 20.568 62.3477 19.8C63.0677 19.008 63.6317 18.108 64.0397 17.1C64.4477 16.068 64.6517 14.964 64.6517 13.788C64.6517 12.588 64.4357 11.472 64.0037 10.44C63.5957 9.408 63.0197 8.508 62.2757 7.74C61.5557 6.948 60.7037 6.336 59.7197 5.904C58.7357 5.472 57.6677 5.256 56.5157 5.256C55.3637 5.256 54.2957 5.472 53.3117 5.904C52.3277 6.336 51.4637 6.948 50.7197 7.74C49.9757 8.508 49.3997 9.408 48.9917 10.44C48.5837 11.472 48.3797 12.588 48.3797 13.788ZM93.2559 27V0.503998H101.176C103.84 0.503998 106.108 0.899998 107.98 1.692C109.852 2.484 111.352 3.54 112.48 4.86C113.632 6.18 114.472 7.656 115 9.288C115.528 10.92 115.792 12.564 115.792 14.22C115.792 16.188 115.432 17.964 114.712 19.548C114.016 21.108 113.056 22.452 111.832 23.58C110.608 24.684 109.192 25.536 107.584 26.136C105.976 26.712 104.272 27 102.472 27H93.2559ZM98.4759 21.96H101.572C102.892 21.96 104.092 21.792 105.172 21.456C106.252 21.096 107.176 20.58 107.944 19.908C108.736 19.236 109.336 18.396 109.744 17.388C110.176 16.356 110.392 15.18 110.392 13.86C110.392 12.132 110.104 10.728 109.528 9.648C108.976 8.544 108.28 7.692 107.44 7.092C106.624 6.492 105.784 6.084 104.92 5.868C104.056 5.628 103.324 5.508 102.724 5.508H98.4759V21.96ZM137.409 13.788C137.409 11.964 137.757 10.236 138.453 8.604C139.149 6.972 140.109 5.532 141.333 4.284C142.581 3.012 144.021 2.016 145.653 1.296C147.285 0.575999 149.037 0.215999 150.909 0.215999C152.757 0.215999 154.497 0.575999 156.129 1.296C157.761 2.016 159.201 3.012 160.449 4.284C161.721 5.532 162.705 6.972 163.401 8.604C164.121 10.236 164.481 11.964 164.481 13.788C164.481 15.66 164.121 17.412 163.401 19.044C162.705 20.676 161.721 22.116 160.449 23.364C159.201 24.588 157.761 25.548 156.129 26.244C154.497 26.94 152.757 27.288 150.909 27.288C149.037 27.288 147.285 26.94 145.653 26.244C144.021 25.548 142.581 24.588 141.333 23.364C140.109 22.116 139.149 20.676 138.453 19.044C137.757 17.412 137.409 15.66 137.409 13.788ZM142.809 13.788C142.809 14.964 143.013 16.068 143.421 17.1C143.853 18.108 144.441 19.008 145.185 19.8C145.953 20.568 146.829 21.168 147.813 21.6C148.821 22.032 149.913 22.248 151.089 22.248C152.217 22.248 153.261 22.032 154.221 21.6C155.205 21.168 156.057 20.568 156.777 19.8C157.497 19.008 158.061 18.108 158.469 17.1C158.877 16.068 159.081 14.964 159.081 13.788C159.081 12.588 158.865 11.472 158.433 10.44C158.025 9.408 157.449 8.508 156.705 7.74C155.985 6.948 155.133 6.336 154.149 5.904C153.165 5.472 152.097 5.256 150.945 5.256C149.793 5.256 148.725 5.472 147.741 5.904C146.757 6.336 145.893 6.948 145.149 7.74C144.405 8.508 143.829 9.408 143.421 10.44C143.013 11.472 142.809 12.588 142.809 13.788Z" fill="white"/>
<path d="M4.62 0.503998V-0.496002H3.62V0.503998H4.62ZM22.476 0.503998H23.476V-0.496002H22.476V0.503998ZM22.476 5.544V6.544H23.476V5.544H22.476ZM16.032 5.544V4.544H15.032V5.544H16.032ZM16.032 27V28H17.032V27H16.032ZM10.812 27H9.812V28H10.812V27ZM10.812 5.544H11.812V4.544H10.812V5.544ZM4.62 5.544H3.62V6.544H4.62V5.544ZM4.62 1.504H22.476V-0.496002H4.62V1.504ZM21.476 0.503998V5.544H23.476V0.503998H21.476ZM22.476 4.544H16.032V6.544H22.476V4.544ZM15.032 5.544V27H17.032V5.544H15.032ZM16.032 26H10.812V28H16.032V26ZM11.812 27V5.544H9.812V27H11.812ZM10.812 4.544H4.62V6.544H10.812V4.544ZM5.62 5.544V0.503998H3.62V5.544H5.62ZM44.0237 8.604L44.9435 8.99628L44.0237 8.604ZM46.9037 4.284L46.1899 3.58366L46.1898 3.58379L46.9037 4.284ZM51.2237 1.296L50.82 0.38108V0.381081L51.2237 1.296ZM61.6997 1.296L62.1033 0.381081V0.38108L61.6997 1.296ZM66.0197 4.284L65.3059 4.98434L65.3125 4.99114L65.3193 4.99781L66.0197 4.284ZM68.9717 8.604L68.0518 8.99632L68.0568 9.00764L68.9717 8.604ZM68.9717 19.044L68.0567 18.6403L68.0518 18.6517L68.9717 19.044ZM66.0197 23.364L66.7199 24.0779L66.72 24.0778L66.0197 23.364ZM61.6997 26.244L62.092 27.1638L61.6997 26.244ZM51.2237 26.244L51.616 25.3242L51.2237 26.244ZM46.9037 23.364L46.1898 24.0642L46.1965 24.0711L46.2035 24.0779L46.9037 23.364ZM44.0237 19.044L44.9435 18.6517L44.0237 19.044ZM48.9917 17.1L48.0617 17.4677L48.0669 17.4809L48.0725 17.4939L48.9917 17.1ZM50.7557 19.8L50.0268 20.4847L50.0375 20.4961L50.0486 20.5071L50.7557 19.8ZM53.3837 21.6L52.9817 22.5157L52.9898 22.5191L53.3837 21.6ZM59.7917 21.6L59.3897 20.6843L59.3813 20.6881L59.7917 21.6ZM62.3477 19.8L63.0772 20.4839L63.0825 20.4783L63.0876 20.4727L62.3477 19.8ZM64.0397 17.1L64.9667 17.4752L64.9697 17.4677L64.0397 17.1ZM64.0037 10.44L63.0737 10.8077L63.0774 10.8169L63.0812 10.8261L64.0037 10.44ZM62.2757 7.74L61.5357 8.41267L61.5464 8.42441L61.5574 8.43579L62.2757 7.74ZM50.7197 7.74L51.4379 8.43579L51.4433 8.43027L51.4485 8.42467L50.7197 7.74ZM48.9917 10.44L49.9216 10.8077V10.8077L48.9917 10.44ZM43.9797 13.788C43.9797 12.095 44.3019 10.5007 44.9435 8.99628L43.1038 8.21171C42.3535 9.97125 41.9797 11.833 41.9797 13.788H43.9797ZM44.9435 8.99628C45.5914 7.4771 46.4822 6.14193 47.6176 4.98421L46.1898 3.58379C44.8772 4.92206 43.848 6.4669 43.1038 8.21171L44.9435 8.99628ZM47.6175 4.98434C48.7766 3.80298 50.1113 2.87976 51.6273 2.21092L50.82 0.381081C49.0721 1.15223 47.5268 2.22101 46.1899 3.58366L47.6175 4.98434ZM51.6273 2.21092C53.1259 1.54979 54.7397 1.216 56.4797 1.216V-0.784001C54.4757 -0.784001 52.5855 -0.397788 50.82 0.38108L51.6273 2.21092ZM56.4797 1.216C58.1938 1.216 59.7958 1.54905 61.2961 2.21092L62.1033 0.38108C60.3396 -0.397056 58.4616 -0.784001 56.4797 -0.784001V1.216ZM61.296 2.21092C62.8121 2.87976 64.1468 3.80298 65.3059 4.98434L66.7335 3.58366C65.3966 2.22101 63.8513 1.15223 62.1033 0.381081L61.296 2.21092ZM65.3193 4.99781C66.4982 6.15446 67.4075 7.48534 68.0518 8.99628L69.8915 8.21171C69.1439 6.45865 68.0851 4.90954 66.72 3.57019L65.3193 4.99781ZM68.0568 9.00764C68.7194 10.5096 69.0517 12.0998 69.0517 13.788H71.0517C71.0517 11.8282 70.664 9.96244 69.8866 8.20036L68.0568 9.00764ZM69.0517 13.788C69.0517 15.528 68.7179 17.1418 68.0568 18.6404L69.8866 19.4476C70.6655 17.6822 71.0517 15.792 71.0517 13.788H69.0517ZM68.0518 18.6517C67.4075 20.1627 66.4982 21.4935 65.3193 22.6502L66.72 24.0778C68.0851 22.7385 69.1439 21.1893 69.8915 19.4363L68.0518 18.6517ZM65.3195 22.6501C64.1618 23.7855 62.8266 24.6763 61.3074 25.3242L62.092 27.1638C63.8368 26.4197 65.3816 25.3905 66.7199 24.0779L65.3195 22.6501ZM61.3074 25.3242C59.8046 25.9651 58.1986 26.288 56.4797 26.288V28.288C58.4568 28.288 60.3308 27.9149 62.092 27.1638L61.3074 25.3242ZM56.4797 26.288C54.735 26.288 53.1172 25.9644 51.616 25.3242L50.8314 27.1638C52.5942 27.9156 54.4804 28.288 56.4797 28.288V26.288ZM51.616 25.3242C50.0968 24.6763 48.7616 23.7855 47.6039 22.6501L46.2035 24.0779C47.5418 25.3905 49.0866 26.4197 50.8314 27.1638L51.616 25.3242ZM47.6176 22.6638C46.4822 21.5061 45.5914 20.1709 44.9435 18.6517L43.1038 19.4363C43.848 21.1811 44.8772 22.7259 46.1898 24.0642L47.6176 22.6638ZM44.9435 18.6517C44.3033 17.1505 43.9797 15.5327 43.9797 13.788H41.9797C41.9797 15.7873 42.3521 17.6735 43.1038 19.4363L44.9435 18.6517ZM47.3797 13.788C47.3797 15.0823 47.6047 16.3117 48.0617 17.4677L49.9216 16.7323C49.5626 15.8243 49.3797 14.8457 49.3797 13.788H47.3797ZM48.0725 17.4939C48.5501 18.6082 49.2022 19.6068 50.0268 20.4847L51.4845 19.1153C50.8212 18.4092 50.2973 17.6078 49.9108 16.7061L48.0725 17.4939ZM50.0486 20.5071C50.9035 21.362 51.8827 22.0331 52.9817 22.5156L53.7857 20.6844C52.9167 20.3028 52.1439 19.774 51.4628 19.0929L50.0486 20.5071ZM52.9898 22.5191C54.1311 23.0083 55.3582 23.248 56.6597 23.248V21.248C55.6092 21.248 54.6523 21.0557 53.7776 20.6809L52.9898 22.5191ZM56.6597 23.248C57.9189 23.248 59.104 23.0061 60.2021 22.5119L59.3813 20.6881C58.5594 21.0579 57.6565 21.248 56.6597 21.248V23.248ZM60.1937 22.5156C61.2987 22.0305 62.2629 21.3526 63.0772 20.4839L61.6181 19.1161C60.9925 19.7834 60.2526 20.3055 59.3897 20.6844L60.1937 22.5156ZM63.0876 20.4727C63.8883 19.5919 64.5151 18.5908 64.9666 17.4752L63.1127 16.7248C62.7483 17.6252 62.2471 18.4241 61.6077 19.1273L63.0876 20.4727ZM64.9697 17.4677C65.4266 16.3117 65.6517 15.0823 65.6517 13.788H63.6517C63.6517 14.8457 63.4687 15.8243 63.1097 16.7323L64.9697 17.4677ZM65.6517 13.788C65.6517 12.4652 65.413 11.2168 64.9261 10.0539L63.0812 10.8261C63.4584 11.7272 63.6517 12.7108 63.6517 13.788H65.6517ZM64.9336 10.0723C64.4792 8.92283 63.8328 7.91018 62.9939 7.0442L61.5574 8.43579C62.2065 9.10582 62.7122 9.89317 63.0737 10.8077L64.9336 10.0723ZM63.0156 7.06733C62.2009 6.1711 61.2336 5.47651 60.1217 4.98836L59.3177 6.81964C60.1738 7.19549 60.9105 7.7249 61.5357 8.41267L63.0156 7.06733ZM60.1217 4.98836C59.002 4.4968 57.796 4.256 56.5157 4.256V6.256C57.5394 6.256 58.4693 6.4472 59.3177 6.81964L60.1217 4.98836ZM56.5157 4.256C55.2354 4.256 54.0294 4.4968 52.9097 4.98836L53.7137 6.81964C54.562 6.4472 55.492 6.256 56.5157 6.256V4.256ZM52.9097 4.98836C51.8009 5.47515 50.8261 6.16622 49.9908 7.05532L51.4485 8.42467C52.1013 7.72978 52.8545 7.19685 53.7137 6.81964L52.9097 4.98836ZM50.0014 7.0442C49.1625 7.91018 48.5162 8.92283 48.0617 10.0723L49.9216 10.8077C50.2832 9.89317 50.7888 9.10582 51.4379 8.43579L50.0014 7.0442ZM48.0617 10.0723C47.6038 11.2306 47.3797 12.4724 47.3797 13.788H49.3797C49.3797 12.7036 49.5636 11.7134 49.9216 10.8077L48.0617 10.0723ZM93.2559 27H92.2559V28H93.2559V27ZM93.2559 0.503998V-0.496002H92.2559V0.503998H93.2559ZM107.98 1.692L107.59 2.61297L107.59 2.61297L107.98 1.692ZM112.48 4.86L111.72 5.50969L111.727 5.51753L112.48 4.86ZM115 9.288L115.951 8.98018V8.98018L115 9.288ZM114.712 19.548L113.802 19.1342L113.799 19.1406L114.712 19.548ZM111.832 23.58L112.502 24.3226L112.51 24.3154L111.832 23.58ZM107.584 26.136L107.921 27.0775L107.934 27.0729L107.584 26.136ZM98.4759 21.96H97.4759V22.96H98.4759V21.96ZM105.172 21.456L105.469 22.4109L105.479 22.4079L105.488 22.4047L105.172 21.456ZM107.944 19.908L107.297 19.1455L107.291 19.1504L107.285 19.1554L107.944 19.908ZM109.744 17.388L108.821 17.0018L108.817 17.0128L109.744 17.388ZM109.528 9.648L108.634 10.0952L108.639 10.107L108.646 10.1186L109.528 9.648ZM107.44 7.092L106.847 7.89773L106.859 7.90573L107.44 7.092ZM104.92 5.868L104.652 6.83152L104.665 6.83499L104.677 6.83814L104.92 5.868ZM98.4759 5.508V4.508H97.4759V5.508H98.4759ZM94.2559 27V0.503998H92.2559V27H94.2559ZM93.2559 1.504H101.176V-0.496002H93.2559V1.504ZM101.176 1.504C103.746 1.504 105.873 1.8866 107.59 2.61297L108.37 0.771033C106.342 -0.0866038 103.934 -0.496002 101.176 -0.496002V1.504ZM107.59 2.61297C109.344 3.3548 110.708 4.32618 111.72 5.50965L113.24 4.21035C111.996 2.75382 110.36 1.6132 108.37 0.771032L107.59 2.61297ZM111.727 5.51753C112.791 6.7378 113.563 8.09539 114.048 9.59582L115.951 8.98018C115.381 7.21661 114.472 5.6222 113.233 4.20247L111.727 5.51753ZM114.048 9.59582C114.545 11.132 114.792 12.6722 114.792 14.22H116.792C116.792 12.4558 116.51 10.708 115.951 8.98018L114.048 9.59582ZM114.792 14.22C114.792 16.064 114.455 17.6962 113.802 19.1342L115.622 19.9618C116.409 18.2318 116.792 16.312 116.792 14.22H114.792ZM113.799 19.1406C113.157 20.5797 112.276 21.8112 111.154 22.8446L112.51 24.3154C113.836 23.0928 114.875 21.6363 115.625 19.9554L113.799 19.1406ZM111.162 22.8374C110.036 23.8536 108.729 24.6413 107.234 25.1991L107.934 27.0729C109.655 26.4307 111.18 25.5144 112.502 24.3226L111.162 22.8374ZM107.247 25.1946C105.753 25.7298 104.163 26 102.472 26V28C104.381 28 106.199 27.6942 107.921 27.0774L107.247 25.1946ZM102.472 26H93.2559V28H102.472V26ZM98.4759 22.96H101.572V20.96H98.4759V22.96ZM101.572 22.96C102.976 22.96 104.278 22.7813 105.469 22.4109L104.875 20.5011C103.906 20.8027 102.808 20.96 101.572 20.96V22.96ZM105.488 22.4047C106.68 22.0075 107.724 21.4296 108.602 20.6606L107.285 19.1554C106.628 19.7304 105.824 20.1845 104.856 20.5073L105.488 22.4047ZM108.591 20.6705C109.512 19.889 110.205 18.9138 110.671 17.7632L108.817 17.0128C108.467 17.8782 107.96 18.583 107.297 19.1455L108.591 20.6705ZM110.666 17.7741C111.158 16.5999 111.392 15.2891 111.392 13.86H109.392C109.392 15.0709 109.194 16.1121 108.821 17.0019L110.666 17.7741ZM111.392 13.86C111.392 12.0315 111.089 10.4495 110.41 9.17741L108.646 10.1186C109.119 11.0065 109.392 12.2325 109.392 13.86H111.392ZM110.422 9.20079C109.812 7.97931 109.018 6.98996 108.021 6.27827L106.859 7.90573C107.542 8.39404 108.14 9.10869 108.634 10.0952L110.422 9.20079ZM108.032 6.28635C107.126 5.6198 106.169 5.14945 105.162 4.89786L104.677 6.83814C105.399 7.01855 106.122 7.3642 106.848 7.89765L108.032 6.28635ZM105.188 4.90448C104.275 4.65097 103.447 4.508 102.724 4.508V6.508C103.201 6.508 103.837 6.60503 104.652 6.83152L105.188 4.90448ZM102.724 4.508H98.4759V6.508H102.724V4.508ZM97.4759 5.508V21.96H99.4759V5.508H97.4759ZM138.453 8.604L139.373 8.99628L138.453 8.604ZM141.333 4.284L140.62 3.58366L140.619 3.58379L141.333 4.284ZM145.653 1.296L145.25 0.38108V0.381081L145.653 1.296ZM156.129 1.296L156.533 0.381081V0.38108L156.129 1.296ZM160.449 4.284L159.736 4.98434L159.742 4.99114L159.749 4.99781L160.449 4.284ZM163.401 8.604L162.481 8.99632L162.486 9.00764L163.401 8.604ZM163.401 19.044L162.486 18.6403L162.482 18.6517L163.401 19.044ZM160.449 23.364L161.15 24.0779L161.15 24.0778L160.449 23.364ZM156.129 26.244L156.522 27.1638L156.129 26.244ZM145.653 26.244L146.046 25.3242L145.653 26.244ZM141.333 23.364L140.619 24.0642L140.626 24.0711L140.633 24.0779L141.333 23.364ZM138.453 19.044L139.373 18.6517L138.453 19.044ZM143.421 17.1L142.491 17.4677L142.497 17.4809L142.502 17.4939L143.421 17.1ZM145.185 19.8L144.457 20.4847L144.467 20.4961L144.478 20.5071L145.185 19.8ZM147.813 21.6L147.411 22.5157L147.419 22.5191L147.813 21.6ZM154.221 21.6L153.819 20.6843L153.811 20.6881L154.221 21.6ZM156.777 19.8L157.507 20.4839L157.512 20.4783L157.517 20.4727L156.777 19.8ZM158.469 17.1L159.396 17.4752L159.399 17.4677L158.469 17.1ZM158.433 10.44L157.503 10.8077L157.507 10.8169L157.511 10.8261L158.433 10.44ZM156.705 7.74L155.965 8.41267L155.976 8.42441L155.987 8.43579L156.705 7.74ZM145.149 7.74L145.868 8.43579L145.873 8.43027L145.878 8.42467L145.149 7.74ZM143.421 10.44L144.351 10.8077V10.8077L143.421 10.44ZM138.409 13.788C138.409 12.095 138.732 10.5007 139.373 8.99628L137.534 8.21171C136.783 9.97125 136.409 11.833 136.409 13.788H138.409ZM139.373 8.99628C140.021 7.4771 140.912 6.14193 142.047 4.98421L140.619 3.58379C139.307 4.92206 138.278 6.4669 137.534 8.21171L139.373 8.99628ZM142.047 4.98434C143.206 3.80298 144.541 2.87976 146.057 2.21092L145.25 0.381081C143.502 1.15223 141.956 2.22101 140.62 3.58366L142.047 4.98434ZM146.057 2.21092C147.556 1.54979 149.169 1.216 150.909 1.216V-0.784001C148.905 -0.784001 147.015 -0.397788 145.25 0.38108L146.057 2.21092ZM150.909 1.216C152.624 1.216 154.226 1.54905 155.726 2.21092L156.533 0.38108C154.769 -0.397056 152.891 -0.784001 150.909 -0.784001V1.216ZM155.726 2.21092C157.242 2.87976 158.577 3.80298 159.736 4.98434L161.163 3.58366C159.826 2.22101 158.281 1.15223 156.533 0.381081L155.726 2.21092ZM159.749 4.99781C160.928 6.15446 161.837 7.48534 162.482 8.99628L164.321 8.21171C163.574 6.45865 162.515 4.90954 161.15 3.57019L159.749 4.99781ZM162.486 9.00764C163.149 10.5096 163.481 12.0998 163.481 13.788H165.481C165.481 11.8282 165.094 9.96244 164.316 8.20036L162.486 9.00764ZM163.481 13.788C163.481 15.528 163.148 17.1418 162.486 18.6404L164.316 19.4476C165.095 17.6822 165.481 15.792 165.481 13.788H163.481ZM162.482 18.6517C161.837 20.1627 160.928 21.4935 159.749 22.6502L161.15 24.0778C162.515 22.7385 163.574 21.1893 164.321 19.4363L162.482 18.6517ZM159.749 22.6501C158.591 23.7855 157.256 24.6763 155.737 25.3242L156.522 27.1638C158.266 26.4197 159.811 25.3905 161.15 24.0779L159.749 22.6501ZM155.737 25.3242C154.234 25.9651 152.628 26.288 150.909 26.288V28.288C152.886 28.288 154.76 27.9149 156.522 27.1638L155.737 25.3242ZM150.909 26.288C149.165 26.288 147.547 25.9644 146.046 25.3242L145.261 27.1638C147.024 27.9156 148.91 28.288 150.909 28.288V26.288ZM146.046 25.3242C144.526 24.6763 143.191 23.7855 142.034 22.6501L140.633 24.0779C141.971 25.3905 143.516 26.4197 145.261 27.1638L146.046 25.3242ZM142.047 22.6638C140.912 21.5061 140.021 20.1709 139.373 18.6517L137.534 19.4363C138.278 21.1811 139.307 22.7259 140.619 24.0642L142.047 22.6638ZM139.373 18.6517C138.733 17.1505 138.409 15.5327 138.409 13.788H136.409C136.409 15.7873 136.782 17.6735 137.534 19.4363L139.373 18.6517ZM141.809 13.788C141.809 15.0823 142.034 16.3117 142.491 17.4677L144.351 16.7323C143.992 15.8243 143.809 14.8457 143.809 13.788H141.809ZM142.502 17.4939C142.98 18.6082 143.632 19.6068 144.457 20.4847L145.914 19.1153C145.251 18.4092 144.727 17.6078 144.341 16.7061L142.502 17.4939ZM144.478 20.5071C145.333 21.362 146.312 22.0331 147.411 22.5156L148.215 20.6844C147.346 20.3028 146.574 19.774 145.892 19.0929L144.478 20.5071ZM147.419 22.5191C148.561 23.0083 149.788 23.248 151.089 23.248V21.248C150.039 21.248 149.082 21.0557 148.207 20.6809L147.419 22.5191ZM151.089 23.248C152.349 23.248 153.534 23.0061 154.632 22.5119L153.811 20.6881C152.989 21.0579 152.086 21.248 151.089 21.248V23.248ZM154.623 22.5156C155.728 22.0305 156.693 21.3526 157.507 20.4839L156.048 19.1161C155.422 19.7834 154.682 20.3055 153.819 20.6844L154.623 22.5156ZM157.517 20.4727C158.318 19.5919 158.945 18.5908 159.396 17.4752L157.542 16.7248C157.178 17.6252 156.677 18.4241 156.037 19.1273L157.517 20.4727ZM159.399 17.4677C159.856 16.3117 160.081 15.0823 160.081 13.788H158.081C158.081 14.8457 157.898 15.8243 157.539 16.7323L159.399 17.4677ZM160.081 13.788C160.081 12.4652 159.843 11.2168 159.356 10.0539L157.511 10.8261C157.888 11.7272 158.081 12.7108 158.081 13.788H160.081ZM159.363 10.0723C158.909 8.92283 158.263 7.91018 157.424 7.0442L155.987 8.43579C156.636 9.10582 157.142 9.89317 157.503 10.8077L159.363 10.0723ZM157.445 7.06733C156.631 6.1711 155.663 5.47651 154.551 4.98836L153.747 6.81964C154.603 7.19549 155.34 7.7249 155.965 8.41267L157.445 7.06733ZM154.551 4.98836C153.432 4.4968 152.226 4.256 150.945 4.256V6.256C151.969 6.256 152.899 6.4472 153.747 6.81964L154.551 4.98836ZM150.945 4.256C149.665 4.256 148.459 4.4968 147.339 4.98836L148.143 6.81964C148.992 6.4472 149.922 6.256 150.945 6.256V4.256ZM147.339 4.98836C146.231 5.47515 145.256 6.16622 144.421 7.05532L145.878 8.42467C146.531 7.72978 147.284 7.19685 148.143 6.81964L147.339 4.98836ZM144.431 7.0442C143.592 7.91018 142.946 8.92283 142.491 10.0723L144.351 10.8077C144.713 9.89317 145.219 9.10582 145.868 8.43579L144.431 7.0442ZM142.491 10.0723C142.033 11.2306 141.809 12.4724 141.809 13.788H143.809C143.809 12.7036 143.993 11.7134 144.351 10.8077L142.491 10.0723Z" fill="black"/>
</g>
</g>
<defs>
<filter id="filter0_d_1_84" x="-1" y="0" width="172" height="44" filterUnits="userSpaceOnUse" color-interpolation-filters="sRGB">
<feFlood flood-opacity="0" result="BackgroundImageFix"/>
<feColorMatrix in="SourceAlpha" type="matrix" values="0 0 0 0 0 0 0 0 0 0 0 0 0 0 0 0 0 0 127 0" result="hardAlpha"/>
<feOffset dy="4"/>
<feGaussianBlur stdDeviation="2"/>
<feComposite in2="hardAlpha" operator="out"/>
<feColorMatrix type="matrix" values="0 0 0 0 0 0 0 0 0 0 0 0 0 0 0 0 0 0 0.25 0"/>
<feBlend mode="normal" in2="BackgroundImageFix" result="effect1_dropShadow_1_84"/>
<feBlend mode="normal" in="SourceGraphic" in2="effect1_dropShadow_1_84" result="shape"/>
</filter>
<filter id="filter1_d_1_84" x="0.619995" y="0.216" width="167.861" height="35.072" filterUnits="userSpaceOnUse" color-interpolation-filters="sRGB">
<feFlood flood-opacity="0" result="BackgroundImageFix"/>
<feColorMatrix in="SourceAlpha" type="matrix" values="0 0 0 0 0 0 0 0 0 0 0 0 0 0 0 0 0 0 127 0" result="hardAlpha"/>
<feOffset dy="4"/>
<feGaussianBlur stdDeviation="2"/>
<feComposite in2="hardAlpha" operator="out"/>
<feColorMatrix type="matrix" values="0 0 0 0 0 0 0 0 0 0 0 0 0 0 0 0 0 0 0.25 0"/>
<feBlend mode="normal" in2="BackgroundImageFix" result="effect1_dropShadow_1_84"/>
<feBlend mode="normal" in="SourceGraphic" in2="effect1_dropShadow_1_84" result="shape"/>
</filter>
</defs>
</svg>
